<svg xmlns="http://www.w3.org/2000/svg" width="417" height="526" fill="none"><path fill="#4D62D6" d="m170.238 120.142 232.228 129.736L272.73 482.106 40.502 352.37z"/><path fill="#1EB280" d="M110 60a60.005 60.005 0 0 0 37.039 55.433 60.008 60.008 0 0 0 45.922 0 59.993 59.993 0 0 0 32.472-32.472A60.005 60.005 0 0 0 230 60H110Z"/><ellipse cx="364.5" cy="428.5" fill="#FFA300" rx="52.5" ry="53.5"/><path fill="#F0484F" d="M0 449.536a108.124 108.124 0 0 0 117.846 23.441 108.12 108.12 0 0 0 35.08-23.441l-76.463-76.463-76.464 76.463Z"/><ellipse cx="169.5" cy="38" fill="#FFA300" rx="21.5" ry="22"/></svg>